<?xml version="1.0" encoding="UTF-8"?>
<svg xmlns="http://www.w3.org/2000/svg" xmlns:xlink="http://www.w3.org/1999/xlink" width="113.12pt" height="150.14pt" viewBox="0 0 113.12 150.14" version="1.1">
<defs>
<clipPath id="clip1">
  <path d="M 0 114 L 113 114 L 113 117 L 0 117 Z M 0 114 "/>
</clipPath>
<clipPath id="clip2">
  <path d="M 14 0.0390625 L 66 0.0390625 L 66 63 L 14 63 Z M 14 0.0390625 "/>
</clipPath>
<clipPath id="clip3">
  <path d="M 47 0.0390625 L 99 0.0390625 L 99 63 L 47 63 Z M 47 0.0390625 "/>
</clipPath>
<clipPath id="clip4">
  <path d="M 24 138 L 33 138 L 33 150.039062 L 24 150.039062 Z M 24 138 "/>
</clipPath>
<clipPath id="clip5">
  <path d="M 34 141 L 42 141 L 42 150.039062 L 34 150.039062 Z M 34 141 "/>
</clipPath>
<clipPath id="clip6">
  <path d="M 47 138 L 59 138 L 59 150.039062 L 47 150.039062 Z M 47 138 "/>
</clipPath>
<clipPath id="clip7">
  <path d="M 59 138 L 68 138 L 68 150.039062 L 59 150.039062 Z M 59 138 "/>
</clipPath>
<clipPath id="clip8">
  <path d="M 68 138 L 77 138 L 77 150.039062 L 68 150.039062 Z M 68 138 "/>
</clipPath>
</defs>
<g id="surface1">
<path style=" stroke:none;fill-rule:evenodd;fill:rgb(81.040955%,40.09552%,12.734985%);fill-opacity:1;" d="M 12.363281 77.667969 L 15.933594 77.667969 L 15.933594 97.277344 C 15.933594 104.59375 19.953125 107.171875 27.363281 107.171875 C 32.515625 107.171875 35.136719 106.132812 36.804688 104.277344 C 38.386719 102.5625 38.570312 100.210938 38.570312 97.910156 L 38.570312 79.339844 C 38.570312 78.433594 38.929688 77.667969 39.96875 77.667969 L 42.679688 77.667969 L 42.679688 76.3125 L 33.148438 76.3125 L 33.148438 77.667969 L 35.179688 77.667969 C 36.488281 77.667969 37.214844 78.433594 37.214844 79.339844 L 37.214844 94.519531 C 37.214844 98.226562 37.214844 101.703125 36.171875 102.832031 C 35.222656 104.144531 33.238281 105.859375 29.667969 105.816406 C 24.5625 105.769531 23.523438 103.691406 23.523438 99.535156 L 23.523438 77.667969 L 27.320312 77.667969 L 27.320312 76.3125 L 12.363281 76.3125 L 12.363281 77.667969 "/>
<path style=" stroke:none;fill-rule:evenodd;fill:rgb(12.461853%,39.175415%,53.622437%);fill-opacity:1;" d="M 69.964844 85.816406 C 69.03125 79.378906 63.820312 75.988281 57.503906 75.988281 C 48.183594 75.988281 43.183594 83.148438 43.183594 91.917969 C 43.183594 100.734375 47.757812 107.683594 57.164062 107.683594 C 64.792969 107.683594 69.496094 103.105469 70.261719 95.5625 L 66.234375 95.5625 C 65.851562 100.5625 62.800781 104.292969 57.503906 104.292969 C 50.257812 104.292969 47.207031 98.53125 47.207031 91.621094 C 47.207031 85.308594 50.257812 79.378906 57.464844 79.378906 C 61.65625 79.378906 65.089844 81.539062 65.9375 85.816406 L 69.964844 85.816406 "/>
<path style=" stroke:none;fill-rule:evenodd;fill:rgb(12.461853%,39.175415%,53.622437%);fill-opacity:1;" d="M 72.90625 106.960938 L 77.058594 106.960938 L 80.449219 97.851562 L 93.246094 97.851562 L 96.550781 106.960938 L 101 106.960938 L 89.175781 76.707031 L 84.726562 76.707031 Z M 86.847656 80.351562 L 86.929688 80.351562 L 91.972656 94.460938 L 81.71875 94.460938 L 86.847656 80.351562 "/>
<g clip-path="url(#clip1)" clip-rule="nonzero">
<path style="fill:none;stroke-width:13.7723;stroke-linecap:butt;stroke-linejoin:miter;stroke:rgb(81.040955%,40.09552%,12.734985%);stroke-opacity:1;stroke-miterlimit:3.86369;" d="M 1131.171875 348.001562 L 0 348.001562 " transform="matrix(0.1,0,0,-0.1,0,150.14)"/>
</g>
<g clip-path="url(#clip2)" clip-rule="nonzero">
<path style=" stroke:none;fill-rule:evenodd;fill:rgb(47.140503%,49.990845%,52.879333%);fill-opacity:1;" d="M 37.621094 0 L 61.019531 28.199219 C 63.949219 31.84375 65.699219 36.488281 65.699219 41.546875 C 65.699219 53.242188 56.3125 62.726562 44.730469 62.726562 C 37.257812 62.726562 30.917969 58.519531 26.980469 52.828125 L 14.503906 37.671875 L 14.503906 31.171875 L 30.082031 50.601562 L 30.210938 50.8125 C 33.8125 55.007812 38.636719 58.917969 44.730469 58.917969 C 54.171875 58.917969 61.894531 51.175781 61.894531 41.546875 C 61.894531 37.402344 60.46875 33.613281 58.09375 30.636719 L 37.621094 6.523438 L 37.621094 0 "/>
</g>
<path style=" stroke:none;fill-rule:evenodd;fill:rgb(47.140503%,49.990845%,52.879333%);fill-opacity:1;" d="M 56.441406 34.425781 C 57.644531 36.511719 58.273438 38.988281 58.273438 41.597656 C 58.273438 49.289062 52.253906 55.527344 44.824219 55.527344 C 40.191406 55.527344 36.105469 53.101562 33.6875 49.40625 L 14.503906 25.964844 L 14.503906 19.46875 L 37.371094 47.4375 C 39.417969 50.328125 41.070312 50.808594 44.65625 51.316406 C 49.871094 52.054688 54.195312 46.871094 54.195312 41.382812 C 54.195312 39.605469 54.03125 38.074219 53.246094 36.628906 L 37.621094 18.015625 L 37.621094 11.496094 L 56.441406 34.425781 "/>
<path style=" stroke:none;fill-rule:evenodd;fill:rgb(47.140503%,49.990845%,52.879333%);fill-opacity:1;" d="M 49.953125 37.507812 L 50.300781 39.933594 L 49.597656 43.535156 C 49.597656 43.535156 48.832031 47.207031 48.488281 47.398438 C 43.660156 50.058594 40.261719 46.207031 40.261719 46.207031 C 40.996094 46.738281 41.894531 47.050781 42.859375 47.050781 C 45.367188 47.050781 47.398438 44.960938 47.398438 42.378906 C 47.398438 41.160156 46.949219 40.0625 46.207031 39.230469 L 37.621094 29.070312 L 37.621094 22.550781 L 49.953125 37.507812 "/>
<path style=" stroke:none;fill-rule:evenodd;fill:rgb(47.140503%,49.990845%,52.879333%);fill-opacity:1;" d="M 23.988281 60.703125 L 14.503906 49.164062 L 14.503906 42.664062 L 25.316406 56.152344 C 25.316406 56.152344 37.128906 73.59375 57.851562 62.167969 C 54.589844 65.601562 48.472656 68.300781 41.660156 68.300781 C 33.617188 68.300781 27.042969 64.507812 23.988281 60.703125 "/>
<g clip-path="url(#clip3)" clip-rule="nonzero">
<path style=" stroke:none;fill-rule:evenodd;fill:rgb(47.140503%,49.990845%,52.879333%);fill-opacity:1;" d="M 75.496094 0 L 52.097656 28.199219 C 49.167969 31.84375 47.417969 36.488281 47.417969 41.546875 C 47.417969 53.242188 56.808594 62.726562 68.386719 62.726562 C 75.863281 62.726562 82.199219 58.519531 86.136719 52.828125 L 98.613281 37.671875 L 98.613281 31.171875 L 83.039062 50.601562 L 82.90625 50.8125 C 79.304688 55.007812 74.484375 58.917969 68.386719 58.917969 C 58.945312 58.917969 51.226562 51.175781 51.226562 41.546875 C 51.226562 37.402344 52.648438 33.613281 55.027344 30.636719 L 75.496094 6.523438 L 75.496094 0 "/>
</g>
<path style=" stroke:none;fill-rule:evenodd;fill:rgb(47.140503%,49.990845%,52.879333%);fill-opacity:1;" d="M 56.679688 34.425781 C 55.476562 36.511719 54.847656 38.988281 54.847656 41.597656 C 54.847656 49.289062 60.867188 55.527344 68.292969 55.527344 C 72.925781 55.527344 77.015625 53.101562 79.433594 49.40625 L 98.613281 25.964844 L 98.613281 19.46875 L 75.75 47.4375 C 73.703125 50.328125 72.050781 50.808594 68.464844 51.316406 C 63.246094 52.054688 58.925781 46.871094 58.925781 41.382812 C 58.925781 39.605469 59.089844 38.074219 59.875 36.628906 L 75.496094 18.015625 L 75.496094 11.496094 L 56.679688 34.425781 "/>
<path style=" stroke:none;fill-rule:evenodd;fill:rgb(47.140503%,49.990845%,52.879333%);fill-opacity:1;" d="M 63.167969 37.507812 L 62.820312 39.933594 L 63.519531 43.535156 C 63.519531 43.535156 64.285156 47.207031 64.632812 47.398438 C 69.457031 50.058594 72.859375 46.207031 72.859375 46.207031 C 72.121094 46.738281 71.226562 47.050781 70.257812 47.050781 C 67.753906 47.050781 65.71875 44.960938 65.71875 42.378906 C 65.71875 41.160156 66.171875 40.0625 66.914062 39.230469 L 75.496094 29.070312 L 75.496094 22.550781 L 63.167969 37.507812 "/>
<path style=" stroke:none;fill-rule:evenodd;fill:rgb(47.140503%,49.990845%,52.879333%);fill-opacity:1;" d="M 89.128906 60.703125 L 98.613281 49.164062 L 98.613281 42.664062 L 87.804688 56.152344 C 87.804688 56.152344 75.992188 73.59375 55.269531 62.167969 C 58.53125 65.601562 64.644531 68.300781 71.460938 68.300781 C 79.503906 68.300781 86.074219 64.507812 89.128906 60.703125 "/>
<g clip-path="url(#clip4)" clip-rule="nonzero">
<path style=" stroke:none;fill-rule:evenodd;fill:rgb(47.140503%,49.990845%,52.879333%);fill-opacity:1;" d="M 32.304688 138.515625 L 30.957031 138.515625 L 30.957031 142.746094 L 30.921875 142.746094 C 30.320312 141.777344 29.109375 141.457031 28.269531 141.457031 C 25.757812 141.457031 24.515625 143.414062 24.515625 145.734375 C 24.515625 148.058594 25.773438 150.058594 28.296875 150.058594 C 29.425781 150.058594 30.476562 149.660156 30.921875 148.757812 L 30.957031 148.757812 L 30.957031 149.867188 L 32.304688 149.867188 Z M 25.945312 145.832031 C 25.945312 144.226562 26.566406 142.648438 28.410156 142.648438 C 30.273438 142.648438 31.003906 144.144531 31.003906 145.765625 C 31.003906 147.308594 30.300781 148.867188 28.488281 148.867188 C 26.742188 148.867188 25.945312 147.371094 25.945312 145.832031 "/>
</g>
<g clip-path="url(#clip5)" clip-rule="nonzero">
<path style=" stroke:none;fill-rule:evenodd;fill:rgb(47.140503%,49.990845%,52.879333%);fill-opacity:1;" d="M 40.386719 147.261719 C 40.148438 148.324219 39.367188 148.867188 38.253906 148.867188 C 36.457031 148.867188 35.648438 147.597656 35.695312 146.164062 L 41.847656 146.164062 C 41.925781 144.175781 41.035156 141.457031 38.128906 141.457031 C 35.886719 141.457031 34.265625 143.269531 34.265625 145.734375 C 34.34375 148.246094 35.582031 150.058594 38.207031 150.058594 C 40.050781 150.058594 41.355469 149.074219 41.71875 147.261719 Z M 35.695312 144.972656 C 35.789062 143.714844 36.632812 142.648438 38.046875 142.648438 C 39.382812 142.648438 40.351562 143.683594 40.414062 144.972656 L 35.695312 144.972656 "/>
</g>
<g clip-path="url(#clip6)" clip-rule="nonzero">
<path style=" stroke:none;fill-rule:evenodd;fill:rgb(47.140503%,49.990845%,52.879333%);fill-opacity:1;" d="M 58.019531 141.933594 C 57.667969 139.519531 55.714844 138.246094 53.34375 138.246094 C 49.847656 138.246094 47.96875 140.933594 47.96875 144.226562 C 47.96875 147.53125 49.6875 150.140625 53.21875 150.140625 C 56.078125 150.140625 57.84375 148.421875 58.128906 145.59375 L 56.617188 145.59375 C 56.476562 147.46875 55.332031 148.867188 53.34375 148.867188 C 50.625 148.867188 49.480469 146.703125 49.480469 144.113281 C 49.480469 141.742188 50.625 139.519531 53.328125 139.519531 C 54.902344 139.519531 56.191406 140.328125 56.507812 141.933594 L 58.019531 141.933594 "/>
</g>
<g clip-path="url(#clip7)" clip-rule="nonzero">
<path style=" stroke:none;fill-rule:evenodd;fill:rgb(47.140503%,49.990845%,52.879333%);fill-opacity:1;" d="M 62.394531 140.519531 L 63.414062 140.519531 L 65.496094 138.246094 L 63.761719 138.246094 Z M 65.195312 147.007812 C 65.195312 147.753906 64.460938 148.867188 62.679688 148.867188 C 61.855469 148.867188 61.09375 148.550781 61.09375 147.660156 C 61.09375 146.65625 61.855469 146.339844 62.746094 146.179688 C 63.652344 146.019531 64.667969 146.003906 65.195312 145.625 Z M 67.386719 148.789062 C 67.214844 148.851562 67.085938 148.867188 66.972656 148.867188 C 66.542969 148.867188 66.542969 148.582031 66.542969 147.945312 L 66.542969 143.714844 C 66.542969 141.792969 64.941406 141.457031 63.460938 141.457031 C 61.632812 141.457031 60.058594 142.175781 59.976562 144.210938 L 61.332031 144.210938 C 61.394531 143 62.234375 142.648438 63.382812 142.648438 C 64.238281 142.648438 65.210938 142.839844 65.210938 144.019531 C 65.210938 145.035156 63.9375 144.941406 62.445312 145.226562 C 61.042969 145.496094 59.660156 145.894531 59.660156 147.753906 C 59.660156 149.390625 60.886719 150.058594 62.378906 150.058594 C 63.523438 150.058594 64.527344 149.660156 65.273438 148.789062 C 65.273438 149.679688 65.71875 150.058594 66.417969 150.058594 C 66.847656 150.058594 67.148438 149.980469 67.386719 149.835938 L 67.386719 148.789062 "/>
</g>
<g clip-path="url(#clip8)" clip-rule="nonzero">
<path style=" stroke:none;fill-rule:evenodd;fill:rgb(47.140503%,49.990845%,52.879333%);fill-opacity:1;" d="M 76.308594 138.515625 L 74.957031 138.515625 L 74.957031 142.746094 L 74.925781 142.746094 C 74.320312 141.777344 73.113281 141.457031 72.269531 141.457031 C 69.757812 141.457031 68.519531 143.414062 68.519531 145.734375 C 68.519531 148.058594 69.773438 150.058594 72.300781 150.058594 C 73.429688 150.058594 74.480469 149.660156 74.925781 148.757812 L 74.957031 148.757812 L 74.957031 149.867188 L 76.308594 149.867188 Z M 69.949219 145.832031 C 69.949219 144.226562 70.570312 142.648438 72.414062 142.648438 C 74.273438 142.648438 75.003906 144.144531 75.003906 145.765625 C 75.003906 147.308594 74.304688 148.867188 72.492188 148.867188 C 70.742188 148.867188 69.949219 147.371094 69.949219 145.832031 "/>
</g>
<path style=" stroke:none;fill-rule:evenodd;fill:rgb(47.140503%,49.990845%,52.879333%);fill-opacity:1;" d="M 78.789062 149.867188 L 80.144531 149.867188 L 80.144531 141.648438 L 78.789062 141.648438 Z M 80.144531 138.515625 L 78.789062 138.515625 L 78.789062 140.171875 L 80.144531 140.171875 L 80.144531 138.515625 "/>
<path style=" stroke:none;fill-rule:evenodd;fill:rgb(47.140503%,49.990845%,52.879333%);fill-opacity:1;" d="M 81.890625 149.867188 L 88.824219 149.867188 L 88.824219 148.675781 L 83.578125 148.675781 L 88.601562 142.570312 L 88.601562 141.648438 L 82.210938 141.648438 L 82.210938 142.839844 L 86.851562 142.839844 L 81.890625 148.835938 L 81.890625 149.867188 "/>
<path style=" stroke:none;fill-rule:evenodd;fill:rgb(47.140503%,49.990845%,52.879333%);fill-opacity:1;" d="M 23.011719 121.4375 L 21.5 121.4375 L 21.5 128.6875 C 21.5 130.691406 20.449219 131.789062 18.542969 131.789062 C 16.539062 131.789062 15.394531 130.691406 15.394531 128.6875 L 15.394531 121.4375 L 13.882812 121.4375 L 13.882812 128.6875 C 13.882812 131.710938 15.617188 133.0625 18.542969 133.0625 C 21.371094 133.0625 23.011719 131.550781 23.011719 128.6875 L 23.011719 121.4375 "/>
<path style=" stroke:none;fill-rule:evenodd;fill:rgb(47.140503%,49.990845%,52.879333%);fill-opacity:1;" d="M 25.527344 132.792969 L 26.878906 132.792969 L 26.878906 128.148438 C 26.878906 126.671875 27.671875 125.574219 29.308594 125.574219 C 30.34375 125.574219 30.980469 126.226562 30.980469 127.226562 L 30.980469 132.792969 L 32.332031 132.792969 L 32.332031 127.386719 C 32.332031 125.621094 31.664062 124.378906 29.5 124.378906 C 28.324219 124.378906 27.402344 124.855469 26.832031 125.875 L 26.796875 125.875 L 26.796875 124.570312 L 25.527344 124.570312 L 25.527344 132.792969 "/>
<path style=" stroke:none;fill-rule:evenodd;fill:rgb(47.140503%,49.990845%,52.879333%);fill-opacity:1;" d="M 34.765625 132.792969 L 36.117188 132.792969 L 36.117188 124.570312 L 34.765625 124.570312 Z M 36.117188 121.4375 L 34.765625 121.4375 L 34.765625 123.09375 L 36.117188 123.09375 L 36.117188 121.4375 "/>
<path style=" stroke:none;fill-rule:evenodd;fill:rgb(47.140503%,49.990845%,52.879333%);fill-opacity:1;" d="M 45.242188 124.570312 L 43.828125 124.570312 L 41.585938 131.425781 L 41.554688 131.425781 L 39.25 124.570312 L 37.738281 124.570312 L 40.792969 132.792969 L 42.238281 132.792969 L 45.242188 124.570312 "/>
<path style=" stroke:none;fill-rule:evenodd;fill:rgb(47.140503%,49.990845%,52.879333%);fill-opacity:1;" d="M 52.480469 130.183594 C 52.242188 131.25 51.464844 131.789062 50.351562 131.789062 C 48.554688 131.789062 47.742188 130.519531 47.792969 129.085938 L 53.945312 129.085938 C 54.027344 127.097656 53.136719 124.378906 50.222656 124.378906 C 47.984375 124.378906 46.359375 126.191406 46.359375 128.65625 C 46.441406 131.167969 47.679688 132.980469 50.304688 132.980469 C 52.148438 132.980469 53.453125 131.996094 53.820312 130.183594 Z M 47.792969 127.894531 C 47.886719 126.636719 48.730469 125.574219 50.144531 125.574219 C 51.480469 125.574219 52.453125 126.605469 52.515625 127.894531 L 47.792969 127.894531 "/>
<path style=" stroke:none;fill-rule:evenodd;fill:rgb(47.140503%,49.990845%,52.879333%);fill-opacity:1;" d="M 55.617188 132.792969 L 56.96875 132.792969 L 56.96875 129.132812 C 56.96875 127.050781 57.761719 125.8125 59.941406 125.8125 L 59.941406 124.378906 C 58.476562 124.332031 57.574219 124.984375 56.917969 126.304688 L 56.890625 126.304688 L 56.890625 124.570312 L 55.617188 124.570312 L 55.617188 132.792969 "/>
<path style=" stroke:none;fill-rule:evenodd;fill:rgb(47.140503%,49.990845%,52.879333%);fill-opacity:1;" d="M 60.75 130.199219 C 60.828125 132.234375 62.386719 132.980469 64.230469 132.980469 C 65.902344 132.980469 67.730469 132.347656 67.730469 130.390625 C 67.730469 128.800781 66.394531 128.355469 65.042969 128.054688 C 63.785156 127.75 62.355469 127.59375 62.355469 126.621094 C 62.355469 125.796875 63.292969 125.574219 64.105469 125.574219 C 64.996094 125.574219 65.917969 125.90625 66.011719 126.957031 L 67.363281 126.957031 C 67.253906 124.953125 65.804688 124.378906 63.992188 124.378906 C 62.5625 124.378906 60.925781 125.0625 60.925781 126.71875 C 60.925781 128.292969 62.277344 128.738281 63.609375 129.039062 C 64.964844 129.339844 66.296875 129.515625 66.296875 130.566406 C 66.296875 131.597656 65.15625 131.789062 64.3125 131.789062 C 63.199219 131.789062 62.148438 131.40625 62.101562 130.199219 L 60.75 130.199219 "/>
<path style=" stroke:none;fill-rule:evenodd;fill:rgb(47.140503%,49.990845%,52.879333%);fill-opacity:1;" d="M 69.628906 132.792969 L 70.976562 132.792969 L 70.976562 124.570312 L 69.628906 124.570312 Z M 70.976562 121.4375 L 69.628906 121.4375 L 69.628906 123.09375 L 70.976562 123.09375 L 70.976562 121.4375 "/>
<path style=" stroke:none;fill-rule:evenodd;fill:rgb(47.140503%,49.990845%,52.879333%);fill-opacity:1;" d="M 80.738281 121.4375 L 79.390625 121.4375 L 79.390625 125.667969 L 79.355469 125.667969 C 78.753906 124.699219 77.542969 124.378906 76.703125 124.378906 C 74.191406 124.378906 72.949219 126.335938 72.949219 128.65625 C 72.949219 130.980469 74.207031 132.980469 76.734375 132.980469 C 77.863281 132.980469 78.910156 132.585938 79.355469 131.679688 L 79.390625 131.679688 L 79.390625 132.792969 L 80.738281 132.792969 Z M 74.378906 128.753906 C 74.378906 127.148438 75 125.574219 76.84375 125.574219 C 78.707031 125.574219 79.433594 127.066406 79.433594 128.6875 C 79.433594 130.230469 78.734375 131.789062 76.921875 131.789062 C 75.175781 131.789062 74.378906 130.296875 74.378906 128.753906 "/>
<path style=" stroke:none;fill-rule:evenodd;fill:rgb(47.140503%,49.990845%,52.879333%);fill-opacity:1;" d="M 88.230469 129.929688 C 88.230469 130.675781 87.5 131.789062 85.71875 131.789062 C 84.890625 131.789062 84.128906 131.472656 84.128906 130.582031 C 84.128906 129.578125 84.890625 129.261719 85.78125 129.101562 C 86.6875 128.941406 87.707031 128.929688 88.230469 128.546875 Z M 90.425781 131.710938 C 90.25 131.773438 90.121094 131.789062 90.011719 131.789062 C 89.582031 131.789062 89.582031 131.503906 89.582031 130.867188 L 89.582031 126.636719 C 89.582031 124.714844 87.976562 124.378906 86.496094 124.378906 C 84.667969 124.378906 83.09375 125.097656 83.015625 127.132812 L 84.367188 127.132812 C 84.429688 125.921875 85.273438 125.574219 86.417969 125.574219 C 87.277344 125.574219 88.246094 125.765625 88.246094 126.941406 C 88.246094 127.957031 86.972656 127.863281 85.480469 128.148438 C 84.082031 128.417969 82.699219 128.816406 82.699219 130.675781 C 82.699219 132.3125 83.921875 132.980469 85.414062 132.980469 C 86.558594 132.980469 87.5625 132.585938 88.308594 131.710938 C 88.308594 132.601562 88.753906 132.980469 89.457031 132.980469 C 89.882812 132.980469 90.183594 132.902344 90.425781 132.757812 L 90.425781 131.710938 "/>
<path style=" stroke:none;fill-rule:evenodd;fill:rgb(47.140503%,49.990845%,52.879333%);fill-opacity:1;" d="M 99.34375 121.4375 L 97.992188 121.4375 L 97.992188 125.667969 L 97.960938 125.667969 C 97.355469 124.699219 96.148438 124.378906 95.304688 124.378906 C 92.792969 124.378906 91.554688 126.335938 91.554688 128.65625 C 91.554688 130.980469 92.808594 132.980469 95.339844 132.980469 C 96.46875 132.980469 97.519531 132.585938 97.960938 131.679688 L 97.992188 131.679688 L 97.992188 132.792969 L 99.34375 132.792969 Z M 92.984375 128.753906 C 92.984375 127.148438 93.605469 125.574219 95.449219 125.574219 C 97.308594 125.574219 98.042969 127.066406 98.042969 128.6875 C 98.042969 130.230469 97.34375 131.789062 95.53125 131.789062 C 93.78125 131.789062 92.984375 130.296875 92.984375 128.753906 "/>
</g>
</svg>
